PathFileType	4	(X/Y/Z)	/Users/itak/Documents/Research/Walk-IL/dataset/trc/00271_00010.trc
DataRate	CameraRate	NumFrames	NumMarkers	Units	OrigDataRate	OrigDataStartFrame	OrigNumFrames
100.000000	100.000000	4	54	mm	100.000000	353	565
Frame#	Time	LPSI			L3			STRN			T10			C7			CLAV			RBAK			LBAK			LSHO			LUPA			LAEL			LAOL			LWTS			LWPS			LFRA			LHPS			LHTS			RSHO			RUPA			RAEL			RAOL			RWTS			RWPS			RFRA			RIFD			RHTS			RHPS			RBHD			LFHD			RFHD			LBHD			LHIP			RHIP			RASI			LKNE			LANK			LTIP			LTOE			LMT1			LMT5			LHEE			RKNE			RTHI			RANK			RTIP			RTOE			RMT1			RMT5			RHEE			LIFD			RPSI			LTHI			LASI			*53			
		X1	Y1	Z1	X2	Y2	Z2	X3	Y3	Z3	X4	Y4	Z4	X5	Y5	Z5	X6	Y6	Z6	X7	Y7	Z7	X8	Y8	Z8	X9	Y9	Z9	X10	Y10	Z10	X11	Y11	Z11	X12	Y12	Z12	X13	Y13	Z13	X14	Y14	Z14	X15	Y15	Z15	X16	Y16	Z16	X17	Y17	Z17	X18	Y18	Z18	X19	Y19	Z19	X20	Y20	Z20	X21	Y21	Z21	X22	Y22	Z22	X23	Y23	Z23	X24	Y24	Z24	X25	Y25	Z25	X26	Y26	Z26	X27	Y27	Z27	X28	Y28	Z28	X29	Y29	Z29	X30	Y30	Z30	X31	Y31	Z31	X32	Y32	Z32	X33	Y33	Z33	X34	Y34	Z34	X35	Y35	Z35	X36	Y36	Z36	X37	Y37	Z37	X38	Y38	Z38	X39	Y39	Z39	X40	Y40	Z40	X41	Y41	Z41	X42	Y42	Z42	X43	Y43	Z43	X44	Y44	Z44	X45	Y45	Z45	X46	Y46	Z46	X47	Y47	Z47	X48	Y48	Z48	X49	Y49	Z49	X50	Y50	Z50	X51	Y51	Z51	X52	Y52	Z52	X53	Y53	Z53	X54	Y54	Z54	

354	3.53	-591.7410278320312	984.6654052734375	-8.096512794494629	-565.3385009765625	1065.605712890625	68.06577301025391	-290.981689453125	1210.217529296875	87.2236328125	-561.437744140625	1179.152587890625	64.70695495605469	-493.2302856445312	1417.339111328125	66.06473541259766	-344.5698547363281	1316.691040039062	86.76314544677734	-561.206787109375	1280.729614257812	127.8035049438477	-496.6095886230469	1388.316284179688	-42.41996765136719	-398.7040405273438	1387.868041992188	-74.25647735595703	-405.6261596679688	1278.4716796875	-160.3545837402344	-383.6708984375	1087.729858398438	-190.5626068115234	-459.4500732421875	1053.836669921875	-161.1171112060547	-235.8399963378906	926.4993896484375	-131.1991882324219	-245.3088684082031	905.6077880859375	-200.5562744140625	-333.8714599609375	1002.290466308594	-202.5827789306641	-196.2409820556641	832.1148681640625	-195.6514129638672	-161.3602600097656	857.352783203125	-146.2567749023438	-446.3132934570312	1386.8330078125	228.9129791259766	-470.0588073730469	1331.981811523438	292.4424743652344	-548.2610473632812	1079.91357421875	329.7539367675781	-553.3350219726562	1067.516479492188	234.6209259033203	-387.27294921875	903.0838012695312	344.4007873535156	-451.4083557128906	882.3717041015625	396.1033935546875	-524.9021606445312	1023.297485351562	354.3941345214844	-321.3056640625	730.4605712890625	371.5438232421875	-331.6525268554688	803.69921875	385.2934265136719	-393.5480346679688	786.0883178710938	414.2859802246094	-447.5388793945312	1570.232543945312	163.4847869873047	-266.9760437011719	1586.724609375	52.46398162841797	-272.8208312988281	1578.1884765625	145.7251129150391	-440.0761108398438	1573.851196289062	16.96052169799805	-533.8253173828125	931.4259033203125	-108.6607894897461	-470.5708312988281	938.0552368164062	260.8604431152344	-360.5810852050781	933.29833984375	177.9978485107422	-546.7675170898438	464.2740478515625	-80.18258666992188	-823.5729370117188	97.12972259521484	-35.64633941650391	-687.6564331054688	277.5404663085938	-69.07862091064453	-644.7393798828125	40.27030944824219	52.4418830871582	-715.7138061523438	52.13958358764648	84.28046417236328	-711.5337524414062	47.59632110595703	-29.18363380432129	-872.7977294921875	123.3388595581055	13.79331207275391	-316.9408874511719	489.7009582519531	210.4694366455078	-370.823486328125	744.9027709960938	254.0234680175781	-303.5428161621094	43.72546768188477	174.1102600097656	-283.8347778320312	369.7284240722656	195.3891906738281	-114.031494140625	42.30078887939453	99.25296020507812	-175.4093627929688	46.82101821899414	68.76584625244141	-196.3848571777344	34.09740447998047	184.6867065429688	-360.591796875	42.44405364990234	127.8946838378906	-135.4485626220703	769.322509765625	-126.5137329101562	-582.1704711914062	987.99169921875	166.7530975341797	-528.76513671875	605.2833251953125	-99.45761871337891	-392.1270751953125	928.8169555664062	-71.43843078613281	nan	nan	nan	
355	3.54	-602.7544555664062	983.6378784179688	-8.455519676208496	-576.173095703125	1064.93212890625	67.48094177246094	-300.6038208007812	1209.145629882812	85.23038482666016	-571.2457885742188	1179.42626953125	63.85851287841797	-501.6047668457031	1417.201049804688	64.04537963867188	-353.5169677734375	1315.907958984375	84.57778167724609	-570.1876831054688	1281.143432617188	126.4872894287109	-505.6263427734375	1387.850708007812	-44.34931945800781	-407.826416015625	1386.74609375	-76.60166931152344	-415.6996765136719	1277.114379882812	-162.3171844482422	-394.45556640625	1086.422973632812	-192.18798828125	-470.1864013671875	1052.585571289062	-162.3704376220703	-245.2842407226562	927.0986938476562	-132.5379180908203	-254.8266448974609	905.65478515625	-201.7331848144531	-344.3536376953125	1001.516296386719	-203.9998168945312	-205.0890502929688	832.7175903320312	-196.5774688720703	-170.2394561767578	858.6564331054688	-147.3957672119141	-454.4487609863281	1386.955810546875	226.8681640625	-478.3744201660156	1332.51171875	290.6978759765625	-557.1445922851562	1080.761962890625	329.7931518554688	-562.6510620117188	1067.832641601562	234.7945556640625	-394.5138244628906	905.6281127929688	344.2381896972656	-458.2933044433594	884.4308471679688	396.5361938476562	-533.3799438476562	1024.519287109375	354.5908508300781	-326.5106201171875	733.8767700195312	372.1710510253906	-337.7283935546875	807.058349609375	385.5657348632812	-399.2010192871094	788.8988037109375	414.9332885742188	-455.2745666503906	1569.67138671875	161.3148651123047	-274.8690185546875	1586.117309570312	49.99916839599609	-280.5806274414062	1577.419189453125	143.2649993896484	-448.0418090820312	1573.521850585938	14.76220035552979	-544.8171997070312	931.2075805664062	-109.4756088256836	-480.335693359375	936.3318481445312	259.7738647460938	-370.5643005371094	932.5872802734375	176.5798797607422	-555.5327758789062	464.1546020507812	-79.13236236572266	-827.1131591796875	93.45161437988281	-33.97870254516602	-693.4581909179688	275.0129699707031	-67.48517608642578	-645.0581665039062	40.37856674194336	52.86315155029297	-716.90380859375	50.916259765625	84.85069274902344	-713.058837890625	47.9193115234375	-28.4438648223877	-876.9536743164062	117.6619644165039	15.8373327255249	-322.100830078125	490.2585144042969	209.7110748291016	-378.89306640625	744.6614990234375	252.5734100341797	-303.1526794433594	44.43856430053711	174.3464508056641	-287.6548156738281	370.8230895996094	195.0956878662109	-113.6669998168945	42.1724739074707	99.31076812744141	-175.0609283447266	47.04922103881836	68.99833679199219	-195.9932708740234	34.09690475463867	184.8618316650391	-359.9809875488281	43.26835632324219	128.2035369873047	-143.35546875	770.9744873046875	-127.210693359375	-592.3956298828125	986.0930786132812	166.4471435546875	-537.7804565429688	605.2291259765625	-99.6064453125	-402.7476196289062	929.0576782226562	-73.1131591796875	nan	nan	nan	
356	3.55	-613.7274169921875	982.716552734375	-8.847268104553223	-587.0277099609375	1064.295043945312	66.86348724365234	-310.2652587890625	1208.119384765625	83.22993469238281	-581.0655517578125	1179.76220703125	62.96797943115234	-509.9693603515625	1417.10986328125	61.97611236572266	-362.4696655273438	1315.168579101562	82.37255096435547	-579.1788940429688	1281.600952148438	125.1061859130859	-514.6234130859375	1387.44287109375	-46.31209182739258	-416.9465637207031	1385.6357421875	-78.99909210205078	-425.8938293457031	1275.774780273438	-164.3215484619141	-405.5107421875	1085.077758789062	-193.9068450927734	-481.2106628417969	1051.409912109375	-163.6338806152344	-255.2636566162109	927.4491577148438	-133.9549865722656	-264.892822265625	905.4921875	-203.0014495849609	-355.2171325683594	1000.659118652344	-205.4699096679688	-214.5647277832031	833.0396728515625	-197.576416015625	-179.6637878417969	859.6752319335938	-148.6016540527344	-462.6365356445312	1387.094970703125	224.7913055419922	-486.7642517089844	1333.05859375	288.9086303710938	-566.14892578125	1081.6328125	329.7237854003906	-572.0413818359375	1068.1904296875	234.8530120849609	-402.103759765625	908.0015258789062	344.1088562011719	-465.5981750488281	886.37451171875	396.8960266113281	-542.06982421875	1025.721923828125	354.6913757324219	-332.2891235351562	737.0753173828125	372.8789672851562	-344.2715454101562	810.2009887695312	385.9161987304688	-405.4296569824219	791.545166015625	415.5611877441406	-463.0226135253906	1569.17578125	159.0469818115234	-282.7784118652344	1585.577514648438	47.4493408203125	-288.3639526367188	1576.740966796875	140.7180328369141	-456.0140686035156	1573.215942382812	12.46840953826904	-555.7618408203125	931.0620727539062	-110.2944107055664	-490.2628173828125	934.74267578125	258.7519836425781	-380.615478515625	931.9954833984375	175.2897644042969	-564.225341796875	464.1012573242188	-78.12480163574219	-830.3700561523438	89.89813995361328	-32.13697814941406	-699.2667236328125	272.7101745605469	-65.86167144775391	-645.2578125	40.46951293945312	53.2535514831543	-717.8294677734375	49.69563674926758	85.44707489013672	-714.5265502929688	48.25879287719727	-27.66866493225098	-880.6610717773438	112.1209030151367	18.14645576477051	-327.4357604980469	490.9622192382812	209.0996246337891	-387.1573181152344	744.5547485351562	251.2116241455078	-302.7093505859375	45.32357788085938	174.6549987792969	-291.631591796875	372.1066589355469	194.9700317382812	-113.2787170410156	42.16596603393555	99.45765686035156	-174.6988067626953	47.38429260253906	69.28540802001953	-195.5260009765625	34.08031845092773	185.0735626220703	-359.2532348632812	44.36582565307617	128.5710601806641	-152.0305938720703	772.2647094726562	-127.9594573974609	-602.6893920898438	984.3135375976562	166.0839691162109	-546.7049560546875	605.2536010742188	-99.77019500732422	-413.2891845703125	929.371337890625	-74.70661926269531	nan	nan	nan	
357	3.56	-624.589111328125	981.9352416992188	-9.282157897949219	-597.8440551757812	1063.73583984375	66.21175384521484	-319.9270629882812	1207.161743164062	81.22727203369141	-590.8795166015625	1180.155639648438	62.03176498413086	-518.3178100585938	1417.064208984375	59.86722564697266	-371.4055786132812	1314.489624023438	80.15285491943359	-588.1624755859375	1282.096069335938	123.671745300293	-523.5955810546875	1387.097290039062	-48.29912185668945	-426.0617370605469	1384.555419921875	-81.43994140625	-436.1984558105469	1274.471435546875	-166.3609771728516	-416.8221435546875	1083.715087890625	-195.6952514648438	-492.4990234375	1050.32568359375	-164.8879852294922	-265.7777709960938	927.5282592773438	-135.4577941894531	-275.5133056640625	905.1038208007812	-204.3681182861328	-366.4541015625	999.723876953125	-206.9882965087891	-224.6779479980469	833.0565185546875	-198.6630096435547	-189.6620178222656	860.3555297851562	-149.9058227539062	-470.8550720214844	1387.253173828125	222.6895141601562	-495.1926574707031	1333.6220703125	287.0800476074219	-575.2327880859375	1082.531372070312	329.5519714355469	-581.480224609375	1068.598022460938	234.7997283935547	-410.0249938964844	910.170654296875	344.0039672851562	-473.2952575683594	888.189453125	397.17822265625	-550.925537109375	1026.904907226562	354.6994934082031	-338.6647338867188	739.998779296875	373.6343383789062	-351.2745666503906	813.0847778320312	386.3188171386719	-412.2127380371094	793.999267578125	416.1611022949219	-470.7760009765625	1568.754638671875	156.6920166015625	-290.6973876953125	1585.100463867188	44.81353759765625	-296.1587524414062	1576.157470703125	138.0859527587891	-463.9942016601562	1572.932495117188	10.08790588378906	-566.5972290039062	930.9884643554688	-111.1120147705078	-500.2974853515625	933.3501586914062	257.7992248535156	-390.681640625	931.5521240234375	174.1432189941406	-572.8896484375	464.1229858398438	-77.24452972412109	-833.3456420898438	86.44233703613281	-30.16401863098145	-705.1561889648438	270.6707458496094	-64.27861022949219	-645.3938598632812	40.55711364746094	53.61655426025391	-718.526123046875	48.46740341186523	86.05803680419922	-715.942138671875	48.5765380859375	-26.88640022277832	-883.9537353515625	106.7316513061523	20.64629554748535	-332.9741821289062	491.8233032226562	208.6668548583984	-395.6177368164062	744.6088256835938	249.9821472167969	-302.2331237792969	46.34281158447266	175.0512542724609	-295.7875671386719	373.581298828125	195.0512847900391	-112.8813323974609	42.39073944091797	99.75166320800781	-174.3318634033203	47.91989517211914	69.65998077392578	-194.9918212890625	34.05148315429688	185.340576171875	-358.4478759765625	45.72204971313477	129.0062408447266	-161.4752960205078	773.1531372070312	-128.7947235107422	-613.0064697265625	982.7134399414062	165.6466979980469	-555.5709228515625	605.3493041992188	-99.96063232421875	-423.7273559570312	929.7386474609375	-76.17157745361328	nan	nan	nan	
